HIERARCHY
ROOT mixamorig:Hips
{
	OFFSET 0.000000 201.639420 0.000000
	CHANNELS 6 Xposition Yposition Zposition Xrotation Yrotation Zrotation
	JOINT mixamorig:Spine
	{
		OFFSET 0.006200 19.524994 -2.481800
		CHANNELS 3 Xrotation Yrotation Zrotation
		JOINT mixamorig:Spine1
		{
			OFFSET -0.000900 22.835007 -2.825400
			CHANNELS 3 Xrotation Yrotation Zrotation
			JOINT mixamorig:Spine2
			{
				OFFSET -0.020600 26.552490 -3.193300
				CHANNELS 3 Xrotation Yrotation Zrotation
				JOINT mixamorig:Neck
				{
					OFFSET -0.060000 30.701813 1.352200
					CHANNELS 3 Xrotation Yrotation Zrotation
					JOINT mixamorig:Head
					{
						OFFSET -0.087200 22.547607 3.670900
						CHANNELS 3 Xrotation Yrotation Zrotation
						JOINT mixamorig:HeadTop_End
						{
							OFFSET -0.830600 40.355194 7.893500
							CHANNELS 3 Xrotation Yrotation Zrotation
							End Site
							{
								OFFSET 0.000000 30.592346 0.000000
							}
						}
						JOINT mixamorig:RightEye
						{
							OFFSET -6.302100 18.118591 16.197100
							CHANNELS 3 Xrotation Yrotation Zrotation
							End Site
							{
								OFFSET 0.000000 30.592346 0.000000
							}
						}
						JOINT mixamorig:LeftEye
						{
							OFFSET 6.741500 18.382690 16.401899
							CHANNELS 3 Xrotation Yrotation Zrotation
							End Site
							{
								OFFSET 0.000000 30.592346 0.000000
							}
						}
					}
				}
				JOINT mixamorig:LeftShoulder
				{
					OFFSET 11.924900 18.230499 1.425400
					CHANNELS 3 Xrotation Yrotation Zrotation
					JOINT mixamorig:LeftArm
					{
						OFFSET 25.435989 -0.697632 -5.229300
						CHANNELS 3 Xrotation Yrotation Zrotation
						JOINT mixamorig:LeftForeArm
						{
							OFFSET 54.684776 0.000000 0.000000
							CHANNELS 3 Xrotation Yrotation Zrotation
							JOINT mixamorig:LeftHand
							{
								OFFSET 55.098175 0.000000 0.000000
								CHANNELS 3 Xrotation Yrotation Zrotation
								JOINT mixamorig:LeftHandMiddle1
								{
									OFFSET 23.369751 0.000000 0.000000
									CHANNELS 3 Xrotation Yrotation Zrotation
									JOINT mixamorig:LeftHandMiddle2
									{
										OFFSET 6.378677 0.000000 0.000000
										CHANNELS 3 Xrotation Yrotation Zrotation
										JOINT mixamorig:LeftHandMiddle3
										{
											OFFSET 6.148331 0.000000 0.000000
											CHANNELS 3 Xrotation Yrotation Zrotation
											JOINT mixamorig:LeftHandMiddle4
											{
												OFFSET 6.582504 0.000000 0.000000
												CHANNELS 3 Xrotation Yrotation Zrotation
												End Site
												{
													OFFSET -1.168900 6.395691 1.028606
												}
											}
										}
									}
								}
								JOINT mixamorig:LeftHandThumb1
								{
									OFFSET 7.235672 -3.848206 5.434273
									CHANNELS 3 Xrotation Yrotation Zrotation
									JOINT mixamorig:LeftHandThumb2
									{
										OFFSET 6.568451 -3.792297 3.792300
										CHANNELS 3 Xrotation Yrotation Zrotation
										JOINT mixamorig:LeftHandThumb3
										{
											OFFSET 6.063080 -3.500519 3.500518
											CHANNELS 3 Xrotation Yrotation Zrotation
											JOINT mixamorig:LeftHandThumb4
											{
												OFFSET 4.793182 -2.767334 2.767349
												CHANNELS 3 Xrotation Yrotation Zrotation
												End Site
												{
													OFFSET 0.101639 6.054260 1.275483
												}
											}
										}
									}
								}
								JOINT mixamorig:LeftHandIndex1
								{
									OFFSET 23.101074 -0.309540 4.992809
									CHANNELS 3 Xrotation Yrotation Zrotation
									JOINT mixamorig:LeftHandIndex2
									{
										OFFSET 6.226883 0.000000 0.000000
										CHANNELS 3 Xrotation Yrotation Zrotation
										JOINT mixamorig:LeftHandIndex3
										{
											OFFSET 6.094330 0.000000 0.000000
											CHANNELS 3 Xrotation Yrotation Zrotation
											JOINT mixamorig:LeftHandIndex4
											{
												OFFSET 5.482605 0.000000 0.000000
												CHANNELS 3 Xrotation Yrotation Zrotation
												End Site
												{
													OFFSET -1.427902 5.233032 0.797164
												}
											}
										}
									}
								}
								JOINT mixamorig:LeftHandRing1
								{
									OFFSET 22.299240 0.021149 -3.964172
									CHANNELS 3 Xrotation Yrotation Zrotation
									JOINT mixamorig:LeftHandRing2
									{
										OFFSET 6.321869 0.000000 0.000000
										CHANNELS 3 Xrotation Yrotation Zrotation
										JOINT mixamorig:LeftHandRing3
										{
											OFFSET 5.899796 0.000000 0.000000
											CHANNELS 3 Xrotation Yrotation Zrotation
											JOINT mixamorig:LeftHandRing4
											{
												OFFSET 6.517899 0.000000 0.000000
												CHANNELS 3 Xrotation Yrotation Zrotation
												End Site
												{
													OFFSET -1.637299 6.232208 0.980890
												}
											}
										}
									}
								}
								JOINT mixamorig:LeftHandPinky1
								{
									OFFSET 20.463791 -0.302338 -8.562233
									CHANNELS 3 Xrotation Yrotation Zrotation
									JOINT mixamorig:LeftHandPinky2
									{
										OFFSET 6.908646 0.000000 0.000000
										CHANNELS 3 Xrotation Yrotation Zrotation
										JOINT mixamorig:LeftHandPinky3
										{
											OFFSET 4.622849 0.000000 0.000000
											CHANNELS 3 Xrotation Yrotation Zrotation
											JOINT mixamorig:LeftHandPinky4
											{
												OFFSET 5.216080 0.000000 0.000000
												CHANNELS 3 Xrotation Yrotation Zrotation
												End Site
												{
													OFFSET -0.606308 5.116241 0.814926
												}
											}
										}
									}
								}
							}
						}
					}
				}
				JOINT mixamorig:RightShoulder
				{
					OFFSET -12.001300 18.284088 1.348900
					CHANNELS 3 Xrotation Yrotation Zrotation
					JOINT mixamorig:RightArm
					{
						OFFSET -25.308500 -0.751312 -5.164599
						CHANNELS 3 Xrotation Yrotation Zrotation
						JOINT mixamorig:RightForeArm
						{
							OFFSET -54.684429 0.000000 0.000000
							CHANNELS 3 Xrotation Yrotation Zrotation
							JOINT mixamorig:RightHand
							{
								OFFSET -55.150291 0.000000 0.000000
								CHANNELS 3 Xrotation Yrotation Zrotation
								JOINT mixamorig:RightHandMiddle1
								{
									OFFSET -23.317566 0.000000 0.000000
									CHANNELS 3 Xrotation Yrotation Zrotation
									JOINT mixamorig:RightHandMiddle2
									{
										OFFSET -6.378403 0.000000 0.000000
										CHANNELS 3 Xrotation Yrotation Zrotation
										JOINT mixamorig:RightHandMiddle3
										{
											OFFSET -6.148193 0.000000 0.000000
											CHANNELS 3 Xrotation Yrotation Zrotation
											JOINT mixamorig:RightHandMiddle4
											{
												OFFSET -6.583389 0.000000 0.000000
												CHANNELS 3 Xrotation Yrotation Zrotation
												End Site
												{
													OFFSET 1.171692 6.395905 1.029786
												}
											}
										}
									}
								}
								JOINT mixamorig:RightHandThumb1
								{
									OFFSET -7.190521 -3.860474 5.435846
									CHANNELS 3 Xrotation Yrotation Zrotation
									JOINT mixamorig:RightHandThumb2
									{
										OFFSET -6.567429 -3.791718 3.791708
										CHANNELS 3 Xrotation Yrotation Zrotation
										JOINT mixamorig:RightHandThumb3
										{
											OFFSET -6.062469 -3.500153 3.500166
											CHANNELS 3 Xrotation Yrotation Zrotation
											JOINT mixamorig:RightHandThumb4
											{
												OFFSET -4.792618 -2.767029 2.767022
												CHANNELS 3 Xrotation Yrotation Zrotation
												End Site
												{
													OFFSET -0.100327 6.053253 1.276754
												}
											}
										}
									}
								}
								JOINT mixamorig:RightHandIndex1
								{
									OFFSET -23.048981 -0.310791 4.992554
									CHANNELS 3 Xrotation Yrotation Zrotation
									JOINT mixamorig:RightHandIndex2
									{
										OFFSET -6.227539 0.000000 0.000000
										CHANNELS 3 Xrotation Yrotation Zrotation
										JOINT mixamorig:RightHandIndex3
										{
											OFFSET -6.095047 0.000000 0.000000
											CHANNELS 3 Xrotation Yrotation Zrotation
											JOINT mixamorig:RightHandIndex4
											{
												OFFSET -5.484772 0.000000 0.000000
												CHANNELS 3 Xrotation Yrotation Zrotation
												End Site
												{
													OFFSET 1.420593 5.237305 0.797056
												}
											}
										}
									}
								}
								JOINT mixamorig:RightHandRing1
								{
									OFFSET -22.246323 0.020569 -3.963762
									CHANNELS 3 Xrotation Yrotation Zrotation
									JOINT mixamorig:RightHandRing2
									{
										OFFSET -6.322128 0.000000 0.000000
										CHANNELS 3 Xrotation Yrotation Zrotation
										JOINT mixamorig:RightHandRing3
										{
											OFFSET -5.900024 0.000000 0.000000
											CHANNELS 3 Xrotation Yrotation Zrotation
											JOINT mixamorig:RightHandRing4
											{
												OFFSET -6.518356 0.000000 0.000000
												CHANNELS 3 Xrotation Yrotation Zrotation
												End Site
												{
													OFFSET 1.636398 6.232697 0.982186
												}
											}
										}
									}
								}
								JOINT mixamorig:RightHandPinky1
								{
									OFFSET -20.411011 -0.303314 -8.561701
									CHANNELS 3 Xrotation Yrotation Zrotation
									JOINT mixamorig:RightHandPinky2
									{
										OFFSET -6.907349 0.000000 0.000000
										CHANNELS 3 Xrotation Yrotation Zrotation
										JOINT mixamorig:RightHandPinky3
										{
											OFFSET -4.623840 0.000000 0.000000
											CHANNELS 3 Xrotation Yrotation Zrotation
											JOINT mixamorig:RightHandPinky4
											{
												OFFSET -5.218353 0.000000 0.000000
												CHANNELS 3 Xrotation Yrotation Zrotation
												End Site
												{
													OFFSET 0.602097 5.118835 0.816273
												}
											}
										}
									}
								}
							}
						}
					}
				}
			}
		}
	}
	JOINT mixamorig:LeftUpLeg
	{
		OFFSET 18.168400 -13.561905 -0.039000
		CHANNELS 3 Xrotation Yrotation Zrotation
		JOINT mixamorig:LeftLeg
		{
			OFFSET 0.577358 -80.825211 -3.695000
			CHANNELS 3 Xrotation Yrotation Zrotation
			JOINT mixamorig:LeftFoot
			{
				OFFSET -0.577356 -83.370262 -6.520700
				CHANNELS 3 Xrotation Yrotation Zrotation
				JOINT mixamorig:LeftToeBase
				{
					OFFSET 0.750401 -20.798306 25.135401
					CHANNELS 3 Xrotation Yrotation Zrotation
					JOINT mixamorig:LeftToe_End
					{
						OFFSET -0.000500 0.001200 19.917799
						CHANNELS 3 Xrotation Yrotation Zrotation
						End Site
						{
							OFFSET 0.000000 19.917805 0.000000
						}
					}
				}
			}
		}
	}
	JOINT mixamorig:RightUpLeg
	{
		OFFSET -18.162500 -13.585098 -0.041000
		CHANNELS 3 Xrotation Yrotation Zrotation
		JOINT mixamorig:RightLeg
		{
			OFFSET -0.595024 -80.945297 -3.631900
			CHANNELS 3 Xrotation Yrotation Zrotation
			JOINT mixamorig:RightFoot
			{
				OFFSET 0.595024 -83.218193 -6.561200
				CHANNELS 3 Xrotation Yrotation Zrotation
				JOINT mixamorig:RightToeBase
				{
					OFFSET -0.753601 -20.807106 25.115000
					CHANNELS 3 Xrotation Yrotation Zrotation
					JOINT mixamorig:RightToe_End
					{
						OFFSET 0.000299 0.001700 19.918200
						CHANNELS 3 Xrotation Yrotation Zrotation
						End Site
						{
							OFFSET 0.000000 19.918203 0.000000
						}
					}
				}
			}
		}
	}
}
MOTION
Frames: 4
Frame Time: 0.033333
-0.334672 166.512070 -1.723732 -19.278520 -9.653578 2.360154 24.483655 -0.145239 -2.636888 8.109799 0.380133 -0.664556 8.108552 0.338769 -0.695052 -6.318495 1.641309 -1.376925 -19.031084 5.653109 2.797565 -0.000000 0.000000 -0.000000 -0.000000 0.000000 -0.000000 -0.000000 0.000000 -0.000000 5.509317 -19.726887 -5.207872 -32.413718 -3.349242 -62.316057 0.000030 -39.130622 0.000042 28.881868 -22.619474 15.668095 0.083312 0.432088 0.487018 0.089472 1.020974 -10.015057 0.031364 0.606146 -5.925667 -0.000001 0.000001 -0.000005 -13.193692 -8.575862 15.475481 10.957631 25.473686 3.280797 -7.335827 -0.421718 13.147352 0.000003 0.000001 -0.000003 0.102798 -5.276690 -0.097145 0.373242 2.059472 -20.543035 0.049243 0.758760 -7.425358 -0.000003 -0.000001 0.000002 0.017377 6.674715 0.838682 0.107211 1.116775 -10.966103 0.018406 0.464510 -4.537614 -0.000001 -0.000002 0.000001 -2.106675 16.991453 9.108949 0.820077 2.991161 -30.657079 0.198042 -1.511918 14.925331 0.000001 0.000000 -0.000002 2.497496 30.276716 0.140819 -16.827400 31.579557 54.802033 -0.000000 31.984543 -0.000009 -2.442097 6.156473 -36.525823 0.112578 -7.497422 0.503145 0.512451 -2.125643 27.105462 0.006058 -0.237747 2.919668 -0.000004 0.000001 0.000002 -6.901933 8.181154 -4.018463 6.358354 -14.447602 -2.112220 -5.504771 -5.510955 -14.718508 -0.000001 0.000001 0.000001 0.048443 -2.221477 -0.744031 0.645417 -2.367323 30.496614 0.063158 -0.765220 9.436658 -0.000002 -0.000004 0.000003 -0.198820 -8.248687 -2.585884 0.245149 -1.492533 18.653870 0.086618 -0.895033 11.056256 -0.000001 0.000001 0.000000 -2.338941 -18.130783 -9.187730 0.601184 -2.290634 29.408189 0.015905 -0.384948 4.730893 0.000001 -0.000003 0.000004 -65.910403 3.448604 10.523630 74.042153 -1.785061 -0.161155 20.712958 -1.920820 -13.949747 -3.203184 -0.000000 0.000002 -0.000000 -0.000000 0.000000 -64.636915 8.736866 -1.171470 68.264032 -10.479065 -6.497765 22.608353 2.764507 19.018276 -0.127092 0.000009 -0.000001 0.000000 -0.000001 0.000000 
-0.366498 166.541245 -1.712013 -19.255616 -9.672998 2.362141 24.676758 -0.192380 -2.671250 8.342792 0.329013 -0.674146 8.341498 0.288192 -0.697452 -7.248630 1.690990 -1.269703 -17.969623 5.628826 2.601916 0.000000 0.000000 -0.000000 0.000000 0.000000 -0.000000 0.000000 0.000000 -0.000000 5.509578 -19.203024 -5.645580 -31.694943 -3.831381 -60.654593 -0.000003 -41.409456 0.000009 25.347614 -22.039747 12.629671 -0.036756 0.853301 -3.519215 0.179652 1.441140 -14.211422 0.030804 0.600561 -5.871024 0.000002 0.000000 0.000002 -13.419550 -5.306805 10.381603 10.957632 25.473696 3.280793 -7.335836 -0.421704 13.147362 -0.000002 -0.000003 0.000001 -0.176918 -5.039911 -2.233328 0.420376 2.181000 -21.816686 0.048515 0.753230 -7.370869 0.000001 -0.000000 -0.000001 0.442688 7.154717 -4.534410 0.238165 1.655039 -16.376794 0.017958 0.458960 -4.483138 -0.000001 0.000001 0.000002 0.774383 17.927908 -1.876802 1.034546 3.325987 -34.548145 0.198054 -1.511919 14.925362 0.000004 0.000003 -0.000001 2.515056 29.578804 0.488136 -16.619104 31.163855 53.613754 0.000006 33.551184 -0.000007 -4.193557 7.152556 -35.186027 0.816866 -7.908415 8.066412 0.573002 -2.239921 28.694980 0.005617 -0.228894 2.811075 0.000000 0.000001 -0.000001 -6.624685 7.404440 -3.467939 6.451843 -19.201728 0.112580 -5.344430 -5.679737 -13.869596 0.000000 0.000001 0.000002 0.063789 -2.664844 4.705172 0.645422 -2.367324 30.496607 0.063159 -0.765207 9.436679 -0.000000 -0.000001 -0.000001 0.907259 -8.815024 7.637189 0.333329 -1.731883 21.787532 0.086966 -0.896727 11.077758 -0.000001 0.000001 0.000000 1.256537 -18.411668 3.735604 0.637051 -2.353078 30.293556 0.015208 -0.376585 4.627987 -0.000001 0.000002 0.000001 -65.866301 3.455501 10.524775 74.101870 -1.751582 -0.155932 20.767245 -1.941712 -14.046860 -3.245262 -0.000001 -0.000002 -0.000000 -0.000000 -0.000000 -64.626785 8.706355 -1.079523 68.352264 -10.467986 -6.482819 22.593180 2.784899 19.013787 -0.129002 0.000006 0.000002 -0.000000 -0.000001 0.000001 
-0.396809 166.582458 -1.714859 -19.260290 -9.689773 2.361709 24.843534 -0.228546 -2.710058 8.595434 0.285166 -0.695633 8.594045 0.243269 -0.712868 -8.243210 1.748325 -1.130204 -16.764124 5.646357 2.420123 0.000000 0.000000 0.000000 0.000000 0.000000 0.000000 0.000000 0.000000 0.000000 5.563216 -18.563655 -6.024291 -31.214299 -3.964781 -59.190515 0.000011 -43.625497 0.000017 23.309868 -21.382121 11.097321 -0.126891 1.280933 -7.529507 0.302299 1.859263 -18.467672 0.029832 0.591266 -5.779804 -0.000001 0.000000 -0.000000 -13.430669 -1.316874 4.935753 10.957622 25.473696 3.280796 -7.335828 -0.421717 13.147357 0.000003 -0.000001 0.000001 -0.434689 -4.810754 -4.266292 0.465683 2.290864 -22.978138 0.047326 0.743974 -7.279791 -0.000000 0.000002 -0.000004 0.914725 7.601960 -9.997175 0.424203 2.190585 -21.917399 0.017256 0.449648 -4.392134 0.000001 0.000000 0.000001 3.861142 18.341612 -13.339031 1.273099 3.647660 -38.469104 0.198066 -1.511897 14.925372 -0.000003 0.000002 -0.000000 2.533308 28.924816 0.845054 -16.430951 30.276524 52.456017 0.000005 35.314230 -0.000012 -4.933490 7.534118 -34.901471 1.606232 -8.247286 16.196819 0.636759 -2.352548 30.285895 0.004698 -0.209438 2.571854 -0.000002 -0.000000 0.000001 -6.306737 6.509347 -2.833557 6.575873 -24.823470 2.522218 -5.157505 -5.870245 -12.895720 -0.000002 -0.000003 -0.000003 0.126983 -3.136177 10.548229 0.645418 -2.367308 30.496607 0.063160 -0.765233 9.436666 0.000001 -0.000000 -0.000003 2.150741 -9.205611 18.645469 0.438669 -1.974954 25.043334 0.085418 -0.888817 10.978705 0.000000 0.000001 0.000001 4.887820 -17.893685 17.605084 0.671586 -2.411141 31.124059 0.013722 -0.357650 4.394839 0.000002 -0.000004 0.000002 -65.806762 3.464469 10.494178 74.123009 -1.708178 -0.152410 20.855960 -1.965549 -14.140822 -3.288342 -0.000002 0.000005 0.000000 -0.000000 0.000000 -64.596234 8.680649 -1.023549 68.404802 -10.471226 -6.460853 22.582680 2.847443 18.970405 -0.118420 -0.000004 0.000006 -0.000000 -0.000001 0.000001 
-0.420547 166.632370 -1.729897 -19.277789 -9.697108 2.362054 24.995006 -0.252459 -2.745344 8.872902 0.247217 -0.725652 8.871378 0.202873 -0.737641 -9.322802 1.815053 -0.952144 -15.398527 5.718881 2.255399 -0.000000 -0.000000 0.000000 -0.000000 -0.000000 0.000000 -0.000000 -0.000000 0.000000 5.668238 -17.800762 -6.353855 -30.924354 -3.841193 -57.972289 0.000004 -45.834934 0.000012 22.107347 -20.496983 11.047267 -0.185830 1.715530 -11.531274 0.451100 2.256210 -22.610424 0.029651 0.589339 -5.760894 -0.000004 0.000002 0.000002 -13.230946 2.183598 0.646295 10.957626 25.473716 3.280805 -7.335820 -0.421731 13.147341 -0.000003 -0.000000 -0.000000 -0.706619 -4.536509 -6.497686 0.522593 2.420576 -24.362182 0.047075 0.742071 -7.261109 -0.000002 0.000000 -0.000000 1.406997 7.988820 -15.308319 0.649427 2.682820 -27.210393 0.017088 0.447729 -4.373435 0.000001 0.000004 -0.000001 6.709632 18.196257 -24.020066 1.529523 3.948260 -42.338714 0.198037 -1.511907 14.925346 0.000002 -0.000003 -0.000001 2.564849 28.259105 1.183675 -16.488454 28.908065 51.529348 -0.000012 37.053520 0.000016 -4.929278 7.660569 -35.420938 2.416122 -8.480016 24.338336 0.703609 -2.463357 31.877084 0.003860 -0.189910 2.332063 -0.000004 0.000000 -0.000002 -5.988238 5.608720 -2.195150 6.709207 -30.622463 4.782910 -4.967177 -6.057708 -11.920373 0.000000 -0.000001 -0.000002 0.237994 -3.598764 16.396303 0.645418 -2.367322 30.496627 0.063152 -0.765222 9.436660 0.000002 -0.000001 -0.000004 3.409935 -9.371708 29.669696 0.557698 -2.211720 28.300559 0.083877 -0.880849 10.879122 -0.000001 -0.000002 0.000001 8.078422 -16.654153 31.347624 0.706947 -2.468700 31.954401 0.012299 -0.338655 4.161131 0.000001 0.000001 0.000002 -65.749020 3.475060 10.425021 74.109096 -1.655007 -0.143301 20.970971 -1.991150 -14.227180 -3.330849 0.000002 -0.000000 0.000000 -0.000000 0.000000 -64.547951 8.663569 -1.000352 68.420689 -10.477061 -6.439912 22.588851 2.907337 18.922189 -0.101210 -0.000018 -0.000001 -0.000000 -0.000001 0.000000 
